# xmcd
#
# Track frame offsets: 
#        150
#        8543
#        29633
#        51737
#        87668
#        105770
#        147162
#        159395
#        171809
#        182664
#        201456
#        222506
#        234791
#        253989
#        264486
#        289719
#        301954
#        317041
#
# Disc length: 4758 seconds
#
# Revision: 1
# Processed by: cddbd v1.5.2PL0 Copyright (c) Steve Scherf et al.
# Submitted via: ExactAudioCopy v1.0b1
#
DISCID=03129412
DTITLE=Stevie Ray Vaughan - Couldn't Stand The Weather. In Step
DYEAR=1900
DGENRE=Blues
TTITLE0=SCUTTLE BUTTIN'
TTITLE1=COULDN'T STAND THE WEATHER
TTITLE2=THE THINGS (THAT) I USED TO DO
TTITLE3=VOODOO CHILE (SLIGHT RETURN)
TTITLE4=COLD SHOT
TTITLE5=TIN PAN ALLEY
TTITLE6=HONEY BEE
TTITLE7=STANG'S SWANG
TTITLE8=THE HOUSE IS ROCKIN'
TTITLE9=CROSSFIRE
TTITLE10=TIGHTROPE
TTITLE11=LET ME LOVE YOU BABY
TTITLE12=LEAVE MY GIRL ALONE
TTITLE13=TRAVIS WALK
TTITLE14=WALL OF DENIAL
TTITLE15=SCRATCH-N'-SNIFF
TTITLE16=LOVE ME DARLIN'
TTITLE17=RIVIERA PARADISE
EXTD=
EXTT0=
EXTT1=
EXTT2=
EXTT3=
EXTT4=
EXTT5=
EXTT6=
EXTT7=
EXTT8=
EXTT9=
EXTT10=
EXTT11=
EXTT12=
EXTT13=
EXTT14=
EXTT15=
EXTT16=
EXTT17=
PLAYORDER=
